<svg xmlns="http://www.w3.org/2000/svg" viewBox="0 0 331.56 331.56" width="25px" height="25px">
    <defs>
        <style>.cls-1{fill:aqua;}</style>
    </defs>
    <g id="Livello_2" data-name="Livello 2">
        <g id="icons">
            <path class="cls-1" d="M331.56,165.78A50,50,0,0,0,286.38,116c-.27-.68-.55-1.36-.84-2a50,50,0,0,0-70.18-70.19c-.77-.33-1.55-.64-2.32-1a50,50,0,0,0-99,0c-1.21.49-2.42,1-3.61,1.53A50,50,0,0,0,41.14,115c-.23.56-.47,1.13-.69,1.7a50,50,0,0,0,0,98.16c.41,1,.83,2,1.26,3a50,50,0,0,0,69.71,69.71c.88.38,1.77.74,2.65,1.1a50,50,0,0,0,99,0l1.29-.53A50,50,0,0,0,285,218.88c.48-1.11.95-2.22,1.4-3.34A50,50,0,0,0,331.56,165.78Zm-95.07-28.29-81.32,81.32a17.51,17.51,0,0,1-24.75,0L95.07,183.46a17.5,17.5,0,0,1,24.75-24.75l23,23,68.94-68.95a17.5,17.5,0,0,1,24.75,24.75Z"/>
        </g>
    </g>
</svg>